<svg width="160" height="22" viewBox="0 0 160 22" fill="none" xmlns="http://www.w3.org/2000/svg">
<path d="M0.74521 21.7031C0.526615 21.7031 0.347765 21.6338 0.208659 21.4953C0.0695529 21.3567 0 21.1786 0 20.9609V1.66262C0 1.44489 0.0695529 1.26676 0.208659 1.1282C0.347765 0.989653 0.526615 0.920377 0.74521 0.920377H3.9049C4.12349 0.920377 4.30234 0.989653 4.44145 1.1282C4.58056 1.26676 4.65011 1.44489 4.65011 1.66262V8.43185L10.7906 1.48448C10.8701 1.36572 10.9993 1.24696 11.1781 1.1282C11.3769 0.989653 11.6352 0.920377 11.9532 0.920377H15.56C15.7388 0.920377 15.8879 0.989653 16.0071 1.1282C16.1263 1.24696 16.186 1.38551 16.186 1.54386C16.186 1.68241 16.1462 1.80117 16.0667 1.90013L8.40596 10.8664L16.6331 20.7233C16.7126 20.8025 16.7523 20.9213 16.7523 21.0796C16.7523 21.238 16.6927 21.3864 16.5735 21.525C16.4542 21.6437 16.3052 21.7031 16.1263 21.7031H12.4003C12.0426 21.7031 11.7743 21.6239 11.5955 21.4656C11.4166 21.3072 11.2974 21.1984 11.2378 21.139L4.65011 13.5385V20.9609C4.65011 21.1786 4.58056 21.3567 4.44145 21.4953C4.30234 21.6338 4.12349 21.7031 3.9049 21.7031H0.74521Z" fill="#4E2096"/>
<path d="M25.0141 22C22.7288 22 20.9105 21.3666 19.5592 20.0999C18.2277 18.8331 17.5223 16.9924 17.4428 14.5776C17.4428 14.4193 17.4428 14.2114 17.4428 13.9541C17.4428 13.677 17.4428 13.4593 17.4428 13.3009C17.5223 11.7769 17.87 10.4705 18.4861 9.38192C19.1021 8.2735 19.9666 7.4323 21.0794 6.8583C22.1923 6.26451 23.4939 5.96761 24.9843 5.96761C26.6536 5.96761 28.0446 6.31399 29.1575 7.00675C30.2902 7.67971 31.1348 8.60999 31.6912 9.79757C32.2675 10.9654 32.5556 12.3113 32.5556 13.8354V14.5182C32.5556 14.7161 32.4762 14.8844 32.3172 15.0229C32.1781 15.1615 32.0092 15.2308 31.8104 15.2308H22.0631C22.0631 15.2506 22.0631 15.2901 22.0631 15.3495C22.0631 15.3891 22.0631 15.4287 22.0631 15.4683C22.083 16.1017 22.2022 16.6856 22.4208 17.22C22.6593 17.7346 22.9872 18.1502 23.4045 18.4669C23.8417 18.7836 24.3583 18.942 24.9545 18.942C25.4513 18.942 25.8587 18.8727 26.1767 18.7341C26.4946 18.5956 26.7529 18.4273 26.9517 18.2294C27.1703 18.0315 27.3292 17.8632 27.4286 17.7247C27.6075 17.5268 27.7466 17.408 27.8459 17.3684C27.9652 17.309 28.144 17.2794 28.3825 17.2794H31.4825C31.6813 17.2794 31.8402 17.3387 31.9595 17.4575C32.0986 17.5565 32.1582 17.7049 32.1383 17.9028C32.1185 18.2195 31.9495 18.6154 31.6316 19.0904C31.3335 19.5457 30.8864 20.0009 30.2902 20.4561C29.694 20.8916 28.9488 21.2578 28.0546 21.5547C27.1802 21.8516 26.1667 22 25.0141 22ZM22.0631 12.529H27.9055V12.4696C27.9055 11.7571 27.7863 11.1435 27.5478 10.6289C27.3292 10.0945 27.0014 9.67881 26.5642 9.38192C26.127 9.08502 25.6004 8.93657 24.9843 8.93657C24.3683 8.93657 23.8417 9.08502 23.4045 9.38192C22.9673 9.67881 22.6295 10.0945 22.391 10.6289C22.1724 11.1435 22.0631 11.7571 22.0631 12.4696V12.529Z" fill="#4E2096"/>
<path d="M36.2507 21.7031C36.052 21.7031 35.8831 21.6338 35.744 21.4953C35.6049 21.3567 35.5353 21.1786 35.5353 20.9609V7.00675C35.5353 6.78902 35.6049 6.61089 35.744 6.47233C35.8831 6.33378 36.052 6.26451 36.2507 6.26451H39.1719C39.3905 6.26451 39.5694 6.33378 39.7085 6.47233C39.8476 6.61089 39.9172 6.78902 39.9172 7.00675V8.16464C40.4338 7.53126 41.0996 7.00675 41.9143 6.59109C42.7291 6.17544 43.7227 5.96761 44.8952 5.96761C46.0676 5.96761 47.091 6.23482 47.9654 6.76923C48.8597 7.28385 49.5552 8.04588 50.052 9.05533C50.5687 10.045 50.827 11.2524 50.827 12.6775V20.9609C50.827 21.1786 50.7475 21.3567 50.5886 21.4953C50.4495 21.6338 50.2805 21.7031 50.0818 21.7031H46.9221C46.7035 21.7031 46.5247 21.6338 46.3856 21.4953C46.2465 21.3567 46.1769 21.1786 46.1769 20.9609V12.8556C46.1769 11.8066 45.9186 10.9951 45.4019 10.4211C44.9051 9.82726 44.1698 9.53036 43.1961 9.53036C42.2621 9.53036 41.5169 9.82726 40.9604 10.4211C40.404 10.9951 40.1258 11.8066 40.1258 12.8556V20.9609C40.1258 21.1786 40.0563 21.3567 39.9172 21.4953C39.778 21.6338 39.6091 21.7031 39.4104 21.7031H36.2507Z" fill="#4E2096"/>
<path d="M54.3984 21.7031C54.1997 21.7031 54.0308 21.6338 53.8917 21.4953C53.7526 21.3567 53.683 21.1786 53.683 20.9609V18.9717C53.683 18.7737 53.7228 18.5956 53.8023 18.4372C53.9016 18.2789 54.0109 18.1305 54.1302 17.9919L61.4332 9.7085H54.6667C54.4481 9.7085 54.2693 9.63923 54.1302 9.50067C53.9911 9.36212 53.9215 9.19388 53.9215 8.99595V7.00675C53.9215 6.78902 53.9911 6.61089 54.1302 6.47233C54.2693 6.33378 54.4481 6.26451 54.6667 6.26451H66.292C66.5106 6.26451 66.6894 6.33378 66.8285 6.47233C66.9676 6.61089 67.0372 6.78902 67.0372 7.00675V9.1444C67.0372 9.32254 66.9975 9.48088 66.918 9.61943C66.8385 9.75799 66.7391 9.89654 66.6199 10.0351L59.4659 18.2591H66.918C67.1167 18.2591 67.2856 18.3284 67.4247 18.4669C67.5638 18.6055 67.6334 18.7737 67.6334 18.9717V20.9609C67.6334 21.1786 67.5638 21.3567 67.4247 21.4953C67.2856 21.6338 67.1167 21.7031 66.918 21.7031H54.3984Z" fill="#4E2096"/>
<path d="M71.2406 21.7031C71.0419 21.7031 70.873 21.6338 70.7339 21.4953C70.5948 21.3567 70.5252 21.1786 70.5252 20.9609V7.00675C70.5252 6.78902 70.5948 6.61089 70.7339 6.47233C70.873 6.33378 71.0419 6.26451 71.2406 6.26451H74.2215C74.4401 6.26451 74.6189 6.33378 74.758 6.47233C74.8971 6.61089 74.9667 6.78902 74.9667 7.00675V20.9609C74.9667 21.1786 74.8971 21.3567 74.758 21.4953C74.6189 21.6338 74.4401 21.7031 74.2215 21.7031H71.2406ZM71.1512 3.88934C70.9525 3.88934 70.7836 3.82006 70.6445 3.68151C70.5054 3.54296 70.4358 3.36482 70.4358 3.1471V0.771929C70.4358 0.554205 70.5054 0.376068 70.6445 0.237516C70.7836 0.0791719 70.9525 0 71.1512 0H74.2811C74.4997 0 74.6785 0.0791719 74.8176 0.237516C74.9766 0.376068 75.0561 0.554205 75.0561 0.771929V3.1471C75.0561 3.36482 74.9766 3.54296 74.8176 3.68151C74.6785 3.82006 74.4997 3.88934 74.2811 3.88934H71.1512Z" fill="#4E2096"/>
<path d="M85.7371 22C83.4518 22 81.6335 21.3666 80.2821 20.0999C78.9507 18.8331 78.2452 16.9924 78.1657 14.5776C78.1657 14.4193 78.1657 14.2114 78.1657 13.9541C78.1657 13.677 78.1657 13.4593 78.1657 13.3009C78.2452 11.7769 78.593 10.4705 79.209 9.38192C79.8251 8.2735 80.6895 7.4323 81.8024 6.8583C82.9152 6.26451 84.2168 5.96761 85.7073 5.96761C87.3765 5.96761 88.7676 6.31399 89.8804 7.00675C91.0132 7.67971 91.8577 8.60999 92.4141 9.79757C92.9904 10.9654 93.2786 12.3113 93.2786 13.8354V14.5182C93.2786 14.7161 93.1991 14.8844 93.0401 15.0229C92.901 15.1615 92.7321 15.2308 92.5334 15.2308H82.786C82.786 15.2506 82.786 15.2901 82.786 15.3495C82.786 15.3891 82.786 15.4287 82.786 15.4683C82.8059 16.1017 82.9251 16.6856 83.1437 17.22C83.3822 17.7346 83.7101 18.1502 84.1274 18.4669C84.5646 18.7836 85.0813 18.942 85.6775 18.942C86.1743 18.942 86.5816 18.8727 86.8996 18.7341C87.2176 18.5956 87.4759 18.4273 87.6746 18.2294C87.8932 18.0315 88.0522 17.8632 88.1516 17.7247C88.3304 17.5268 88.4695 17.408 88.5689 17.3684C88.6881 17.309 88.8669 17.2794 89.1054 17.2794H92.2055C92.4042 17.2794 92.5632 17.3387 92.6824 17.4575C92.8215 17.5565 92.8811 17.7049 92.8613 17.9028C92.8414 18.2195 92.6725 18.6154 92.3545 19.0904C92.0564 19.5457 91.6093 20.0009 91.0132 20.4561C90.417 20.8916 89.6718 21.2578 88.7775 21.5547C87.9031 21.8516 86.8897 22 85.7371 22ZM82.786 12.529H88.6285V12.4696C88.6285 11.7571 88.5092 11.1435 88.2708 10.6289C88.0522 10.0945 87.7243 9.67881 87.2871 9.38192C86.8499 9.08502 86.3233 8.93657 85.7073 8.93657C85.0912 8.93657 84.5646 9.08502 84.1274 9.38192C83.6902 9.67881 83.3524 10.0945 83.1139 10.6289C82.8953 11.1435 82.786 11.7571 82.786 12.4696V12.529Z" fill="#4E2096"/>
<path d="M97.3314 21.7031C97.1128 21.7031 96.9339 21.6338 96.7948 21.4953C96.6557 21.3567 96.5862 21.1786 96.5862 20.9609V1.66262C96.5862 1.44489 96.6557 1.26676 96.7948 1.1282C96.9339 0.989653 97.1128 0.920377 97.3314 0.920377H105.469C107.079 0.920377 108.47 1.16779 109.642 1.66262C110.835 2.15744 111.759 2.90958 112.414 3.91903C113.09 4.90868 113.428 6.14575 113.428 7.63023C113.428 9.1345 113.09 10.3815 112.414 11.3711C111.759 12.341 110.835 13.0634 109.642 13.5385C108.47 14.0135 107.079 14.251 105.469 14.251H101.475V20.9609C101.475 21.1786 101.405 21.3567 101.266 21.4953C101.127 21.6338 100.948 21.7031 100.73 21.7031H97.3314ZM101.385 10.5695H105.32C106.334 10.5695 107.118 10.3221 107.675 9.82726C108.251 9.33243 108.539 8.59019 108.539 7.60054C108.539 6.72964 108.281 6.01709 107.764 5.46289C107.267 4.90868 106.453 4.63158 105.32 4.63158H101.385V10.5695Z" fill="#4E2096"/>
<path d="M122.881 22C120.596 22 118.777 21.3666 117.426 20.0999C116.095 18.8331 115.389 16.9924 115.31 14.5776C115.31 14.4193 115.31 14.2114 115.31 13.9541C115.31 13.677 115.31 13.4593 115.31 13.3009C115.389 11.7769 115.737 10.4705 116.353 9.38192C116.969 8.2735 117.834 7.4323 118.946 6.8583C120.059 6.26451 121.361 5.96761 122.851 5.96761C124.521 5.96761 125.912 6.31399 127.024 7.00675C128.157 7.67971 129.002 8.60999 129.558 9.79757C130.134 10.9654 130.423 12.3113 130.423 13.8354V14.5182C130.423 14.7161 130.343 14.8844 130.184 15.0229C130.045 15.1615 129.876 15.2308 129.677 15.2308H119.93C119.93 15.2506 119.93 15.2901 119.93 15.3495C119.93 15.3891 119.93 15.4287 119.93 15.4683C119.95 16.1017 120.069 16.6856 120.288 17.22C120.526 17.7346 120.854 18.1502 121.271 18.4669C121.709 18.7836 122.225 18.942 122.822 18.942C123.318 18.942 123.726 18.8727 124.044 18.7341C124.362 18.5956 124.62 18.4273 124.819 18.2294C125.037 18.0315 125.196 17.8632 125.296 17.7247C125.474 17.5268 125.614 17.408 125.713 17.3684C125.832 17.309 126.011 17.2794 126.249 17.2794H129.35C129.548 17.2794 129.707 17.3387 129.826 17.4575C129.966 17.5565 130.025 17.7049 130.005 17.9028C129.985 18.2195 129.817 18.6154 129.499 19.0904C129.2 19.5457 128.753 20.0009 128.157 20.4561C127.561 20.8916 126.816 21.2578 125.922 21.5547C125.047 21.8516 124.034 22 122.881 22ZM119.93 12.529H125.773V12.4696C125.773 11.7571 125.653 11.1435 125.415 10.6289C125.196 10.0945 124.868 9.67881 124.431 9.38192C123.994 9.08502 123.467 8.93657 122.851 8.93657C122.235 8.93657 121.709 9.08502 121.271 9.38192C120.834 9.67881 120.496 10.0945 120.258 10.6289C120.039 11.1435 119.93 11.7571 119.93 12.4696V12.529Z" fill="#4E2096"/>
<path d="M140.796 21.7031C139.564 21.7031 138.511 21.5052 137.636 21.1093C136.762 20.6937 136.096 20.0603 135.639 19.2092C135.202 18.3581 134.984 17.2892 134.984 16.0027V9.76788H132.658C132.44 9.76788 132.261 9.69861 132.122 9.56005C131.983 9.4215 131.913 9.24337 131.913 9.02564V7.00675C131.913 6.78902 131.983 6.61089 132.122 6.47233C132.261 6.33378 132.44 6.26451 132.658 6.26451H134.984V1.36572C134.984 1.148 135.053 0.96986 135.192 0.831309C135.351 0.692757 135.53 0.623481 135.729 0.623481H138.65C138.869 0.623481 139.047 0.692757 139.187 0.831309C139.326 0.96986 139.395 1.148 139.395 1.36572V6.26451H143.121C143.32 6.26451 143.489 6.33378 143.628 6.47233C143.767 6.61089 143.837 6.78902 143.837 7.00675V9.02564C143.837 9.24337 143.767 9.4215 143.628 9.56005C143.489 9.69861 143.32 9.76788 143.121 9.76788H139.395V15.6464C139.395 16.3986 139.524 16.9924 139.783 17.4278C140.061 17.8435 140.538 18.0513 141.214 18.0513H143.39C143.588 18.0513 143.757 18.1206 143.896 18.2591C144.035 18.3977 144.105 18.5659 144.105 18.7638V20.9609C144.105 21.1786 144.035 21.3567 143.896 21.4953C143.757 21.6338 143.588 21.7031 143.39 21.7031H140.796Z" fill="#4E2096"/>
<path d="M152.816 22C151.584 22 150.521 21.8614 149.627 21.5843C148.752 21.2875 148.037 20.9312 147.48 20.5155C146.944 20.0999 146.537 19.6842 146.258 19.2686C146 18.8331 145.861 18.4669 145.841 18.17C145.821 17.9523 145.891 17.7742 146.05 17.6356C146.209 17.4971 146.368 17.4278 146.527 17.4278H149.418C149.478 17.4278 149.537 17.4377 149.597 17.4575C149.656 17.4773 149.716 17.5268 149.776 17.6059C150.034 17.7841 150.302 17.9919 150.581 18.2294C150.859 18.4471 151.177 18.6352 151.534 18.7935C151.912 18.9519 152.379 19.031 152.935 19.031C153.591 19.031 154.148 18.9024 154.605 18.6451C155.062 18.368 155.29 17.982 155.29 17.4872C155.29 17.1309 155.181 16.834 154.962 16.5965C154.764 16.359 154.376 16.1413 153.8 15.9433C153.224 15.7454 152.369 15.5277 151.236 15.2901C150.163 15.0526 149.249 14.7359 148.494 14.3401C147.739 13.9442 147.172 13.4494 146.795 12.8556C146.417 12.242 146.229 11.5097 146.229 10.6586C146.229 9.88664 146.467 9.1444 146.944 8.43185C147.441 7.7193 148.166 7.1354 149.12 6.68016C150.074 6.20513 151.266 5.96761 152.697 5.96761C153.79 5.96761 154.744 6.10616 155.559 6.38327C156.393 6.64058 157.089 6.97706 157.645 7.39271C158.202 7.78857 158.619 8.20423 158.897 8.63968C159.195 9.05533 159.354 9.4215 159.374 9.73819C159.394 9.93612 159.334 10.1044 159.195 10.2429C159.056 10.3815 158.897 10.4507 158.718 10.4507H156.065C155.966 10.4507 155.877 10.4408 155.797 10.4211C155.718 10.3815 155.648 10.332 155.588 10.2726C155.35 10.1143 155.101 9.93612 154.843 9.73819C154.605 9.52047 154.317 9.33243 153.979 9.17409C153.641 9.01574 153.204 8.93657 152.667 8.93657C152.011 8.93657 151.505 9.08502 151.147 9.38192C150.809 9.65902 150.64 10.0153 150.64 10.4507C150.64 10.7278 150.73 10.9852 150.908 11.2227C151.087 11.4602 151.455 11.6779 152.011 11.8758C152.568 12.0738 153.412 12.2816 154.545 12.4993C155.896 12.7368 156.969 13.0931 157.764 13.5682C158.559 14.0432 159.126 14.5974 159.463 15.2308C159.821 15.8444 160 16.5074 160 17.22C160 18.1502 159.722 18.9816 159.165 19.7139C158.609 20.4265 157.794 20.9906 156.721 21.4062C155.668 21.8021 154.366 22 152.816 22Z" fill="#4E2096"/>
</svg>
